#!OML:ASF H:\LiuWeirdWalks\Patient Classification 1\Patient 1\Session 1\male.ASF
:FULLY-SPECIFIED
:DEGREES
776
root 0.460708 17.8375 10.3764 5.31806 -3.55232 -12.7535
lowerback 12.5731 -0.900368 -4.18769
upperback 1.56069 -1.97056 -3.47272
thorax -5.39517 -0.914574 -0.954256
lowerneck -21.0808 2.53923 9.29865
upperneck 13.3759 1.00762 -1.70029
head 7.63109 0.804509 -1.93202
rclavicle 3.73715e-014 1.27222e-014
rhumerus -15.5875 -32.5143 0.573873
rradius 32.05
rwrist 0.621414
rhand -19.8461 -2.82636
rfingers 7.12502
rthumb 6.48836 -32.707
lclavicle 3.73715e-014 1.27222e-014
lhumerus -24.0844 34.1432 27.2866
lradius 37.4524
lwrist 11.3693
lhand -20.0139 -2.98227
lfingers 7.12502
lthumb 6.3264 26.9033
rfemur 5.55807 -4.3787 30.5298
rtibia 23.1456
rfoot -10.5919 -10.5257
rtoes -18.2133
lfemur -29.1584 4.37126 1.64744
ltibia 34.1031
lfoot -0.353627 12.5329
ltoes -8.37393
777
root 0.494214 17.8479 10.4625 5.43514 -3.52274 -12.8825
lowerback 12.5851 -0.932665 -4.37633
upperback 1.43489 -2.05763 -3.64841
thorax -5.53447 -0.951826 -1.01832
lowerneck -20.9068 2.56278 9.43692
upperneck 13.3854 0.98683 -1.53095
head 7.6056 0.819773 -1.90016
rclavicle -2.94201e-014 -4.45278e-014
rhumerus -15.4386 -32.526 0.495247
rradius 32.0085
rwrist 0.535723
rhand -19.9554 -2.76566
rfingers 7.12502
rthumb 6.38286 -32.6495
lclavicle -2.94201e-014 -4.45278e-014
lhumerus -24.3066 34.1566 27.1654
lradius 37.4963
lwrist 11.463
lhand -19.9706 -3.00487
lfingers 7.12502
lthumb 6.36819 26.8794
rfemur 5.71838 -4.22185 30.5188
rtibia 23.0588
rfoot -10.1132 -10.3766
rtoes -18.5051
lfemur -29.1852 4.43387 1.62384
ltibia 34.4784
lfoot -0.429292 12.5313
ltoes -8.02376
778
root 0.527023 17.8597 10.5478 5.58101 -3.44122 -13.0481
lowerback 12.5861 -0.966402 -4.52991
upperback 1.32638 -2.13849 -3.79026
thorax -5.64945 -0.986733 -1.06779
lowerneck -20.8402 2.56201 9.48513
upperneck 13.4376 0.940863 -1.32649
head 7.61003 0.822719 -1.84523
rclavicle 4.69132e-014 4.45278e-014
rhumerus -15.3556 -32.635 0.513737
rradius 32.0093
rwrist 0.63478
rhand -20.0069 -2.547
rfingers 7.12502
rthumb 6.33312 -32.4323
lclavicle 4.69132e-014 4.45278e-014
lhumerus -24.4876 34.2047 27.1271
lradius 37.5366
lwrist 11.5372
lhand -19.9147 -2.98653
lfingers 7.12502
lthumb 6.4222 26.8961
rfemur 5.83557 -4.12721 30.5553
rtibia 22.9735
rfoot -9.61234 -10.2245
rtoes -18.7693
lfemur -29.2597 4.44721 1.64396
ltibia 34.8414
lfoot -0.577909 12.5792
ltoes -7.9453
779
root 0.55918 17.8718 10.6328 5.74567 -3.29622 -13.2658
lowerback 12.5853 -1.01697 -4.64044
upperback 1.26964 -2.23002 -3.89166
thorax -5.70839 -1.02853 -1.09715
lowerneck -20.9827 2.57405 9.50053
upperneck 13.5133 0.900578 -1.1384
head 7.65708 0.825493 -1.78912
rclavicle 2.38542e-014 -4.13472e-014
rhumerus -15.2798 -33.0026 0.603204
rradius 32.0014
rwrist 1.25829
rhand -19.8516 -2.24527
rfingers 7.12502
rthumb 6.48305 -32.126
lclavicle 2.38542e-014 -4.13472e-014
lhumerus -24.5977 34.4029 27.153
lradius 37.5352
lwrist 11.5221
lhand -19.8426 -2.98169
lfingers 7.12502
lthumb 6.49177 26.8988
rfemur 5.92968 -4.11418 30.6536
rtibia 22.8808
rfoot -9.09618 -10.0617
rtoes -19.0392
lfemur -29.3779 4.41864 1.72486
ltibia 35.1992
lfoot -0.781166 12.6418
ltoes -8.03227
780
root 0.590397 17.8834 10.7171 5.92716 -3.10979 -13.5482
lowerback 12.5689 -1.06292 -4.69052
upperback 1.24062 -2.30181 -3.95485
thorax -5.73007 -1.06245 -1.12379
lowerneck -21.2182 2.56398 9.4545
upperneck 13.5857 0.834566 -0.934135
head 7.71663 0.814479 -1.72063
rclavicle 7.15625e-015 4.77083e-014
rhumerus -15.2654 -33.4296 0.766105
rradius 32.0276
rwrist 1.82327
rhand -19.7352 -1.97313
rfingers 7.12502
rthumb 6.59548 -31.8504
lclavicle 7.15625e-015 4.77083e-014
lhumerus -24.6368 34.6116 27.266
lradius 37.5246
lwrist 11.4754
lhand -19.7891 -2.93688
lfingers 7.12502
lthumb 6.54344 26.942
rfemur 6.00022 -4.15465 30.8279
rtibia 22.7814
rfoot -8.55714 -9.88755
rtoes -19.313
lfemur -29.5284 4.36485 1.88428
ltibia 35.5527
lfoot -1.01538 12.7167
ltoes -8.17815
781
root 0.621084 17.8947 10.8012 6.1077 -2.8832 -13.8536
lowerback 12.5554 -1.18795 -4.7702
upperback 1.21895 -2.48272 -4.03383
thorax -5.74381 -1.14929 -1.13192
lowerneck -21.4124 2.66097 9.64146
upperneck 13.6505 0.86155 -0.802371
head 7.77398 0.852992 -1.70138
rclavicle 8.74653e-015 3.49861e-014
rhumerus -15.0448 -33.9325 0.644646
rradius 32.0426
rwrist 2.5368
rhand -19.5096 -1.94203
rfingers 7.12502
rthumb 6.81322 -31.8124
lclavicle 8.74653e-015 3.49861e-014
lhumerus -24.8474 34.821 27.1053
lradius 37.53
lwrist 11.441
lhand -19.7438 -2.88368
lfingers 7.12502
lthumb 6.58711 26.9939
rfemur 6.06564 -4.26409 31.0239
rtibia 22.6783
rfoot -8.0098 -9.67908
rtoes -19.6103
lfemur -29.6854 4.27671 2.0739
ltibia 35.8936
lfoot -1.2629 12.8061
ltoes -8.32637
782
root 0.651121 17.9058 10.8846 6.28949 -2.64032 -14.1677
lowerback 12.5275 -1.27987 -4.82904
upperback 1.21426 -2.61326 -4.08929
thorax -5.73185 -1.21229 -1.13595
lowerneck -21.6135 2.71074 9.74668
upperneck 13.6434 0.846244 -0.656386
head 7.80521 0.86636 -1.66942
rclavicle -2.46493e-014 -9.54166e-015
rhumerus -14.962 -34.929 0.796261
rradius 31.8965
rwrist 4.82274
rhand -18.529 -1.69168
rfingers 7.12502
rthumb 7.75975 -31.5293
lclavicle -2.46493e-014 -9.54166e-015
lhumerus -24.9267 35.0157 27.0808
lradius 37.4947
lwrist 11.3402
lhand -19.7054 -2.87424
lfingers 7.12502
lthumb 6.62421 27.0022
rfemur 6.11751 -4.40287 31.2286
rtibia 22.5805
rfoot -7.45736 -9.44334
rtoes -19.9039
lfemur -29.8397 4.16639 2.28047
ltibia 36.2124
lfoot -1.51643 12.9162
ltoes -8.4171
783
root 0.68044 17.917 10.967 6.46707 -2.40579 -14.47
lowerback 12.5 -1.37143 -4.90906
upperback 1.16765 -2.75007 -4.16086
thorax -5.76439 -1.27689 -1.14393
lowerneck -21.6174 2.75754 9.91874
upperneck 13.5844 0.832671 -0.519394
head 7.78712 0.881508 -1.65155
rclavicle -4.13472e-014 -9.22361e-014
rhumerus -14.9878 -37.2306 1.30508
rradius 31.5467
rwrist 12.7129
rhand -14.6442 -2.08886
rfingers 7.12502
rthumb 11.5079 -31.753
lclavicle -4.13472e-014 -9.22361e-014
lhumerus -25.0662 35.0352 26.9736
lradius 37.4863
lwrist 11.2692
lhand -19.6941 -2.83816
lfingers 7.12502
lthumb 6.63517 27.0379
rfemur 6.16 -4.53539 31.4194
rtibia 22.4879
rfoot -6.89817 -9.18426
rtoes -20.2203
lfemur -29.9698 4.03771 2.48245
ltibia 36.4973
lfoot -1.76942 13.0577
ltoes -8.44862
784
root 0.709779 17.9284 11.0485 6.64086 -2.19356 -14.747
lowerback 12.4849 -1.39832 -4.9812
upperback 1.13133 -2.7996 -4.21352
thorax -5.7934 -1.29892 -1.15099
lowerneck -21.6829 2.72005 9.90378
upperneck 13.5069 0.743439 -0.321114
head 7.76738 0.856242 -1.59308
rclavicle -4.21423e-014 -2.54444e-014
rhumerus -15.2176 -39.4898 2.06591
rradius 31.2074
rwrist 19.9152
rhand -11.1078 -1.40395
rfingers 7.12502
rthumb 14.9166 -30.8469
lclavicle -4.21423e-014 -2.54444e-014
lhumerus -25.045 35.0089 27.0815
lradius 37.4743
lwrist 11.1467
lhand -19.6927 -2.83679
lfingers 7.12502
lthumb 6.63648 27.0392
rfemur 6.19195 -4.65558 31.5726
rtibia 22.4071
rfoot -6.3338 -8.88925
rtoes -20.5686
lfemur -30.0686 3.89704 2.66189
ltibia 36.7436
lfoot -2.02434 13.232
ltoes -8.41911
785
root 0.739377 17.9405 11.1294 6.81094 -2.00987 -14.9876
lowerback 12.475 -1.39535 -5.07779
upperback 1.08487 -2.81443 -4.26844
thorax -5.8355 -1.30306 -1.15252
lowerneck -21.7263 2.65076 9.84372
upperneck 13.4174 0.626152 -0.111944
head 7.73843 0.815834 -1.52766
rclavicle -3.10104e-014 -4.45278e-014
rhumerus -15.5214 -41.4058 2.86989
rradius 30.9727
rwrist 26.0318
rhand -8.00163 -0.506176
rfingers 7.12502
rthumb 17.9073 -29.7017
lclavicle -3.10104e-014 -4.45278e-014
lhumerus -24.9884 34.9287 27.2349
lradius 37.4582
lwrist 10.9926
lhand -19.7065 -2.86879
lfingers 7.12502
lthumb 6.62319 27.0076
rfemur 6.22005 -4.75654 31.6735
rtibia 22.3326
rfoot -5.76595 -8.55847
rtoes -20.9515
lfemur -30.1309 3.74495 2.80466
ltibia 36.95
lfoot -2.28022 13.4381
ltoes -8.36082
786
root 0.769041 17.9532 11.2096 6.9839 -1.87557 -15.1911
lowerback 12.4677 -1.34713 -5.19761
upperback 1.02058 -2.7744 -4.32365
thorax -5.89777 -1.27927 -1.15059
lowerneck -21.7372 2.52651 9.66582
upperneck 13.3412 0.46301 0.15771
head 7.70608 0.753869 -1.4296
rclavicle 0 0
rhumerus -15.7764 -42.1629 3.46541
rradius 30.822
rwrist 28.0766
rhand -6.86598 -0.157202
rfingers 7.12502
rthumb 18.9997 -29.2492
lclavicle 0 0
lhumerus -24.8783 34.7883 27.4693
lradius 37.4458
lwrist 10.8435
lhand -19.7211 -2.91199
lfingers 7.12502
lthumb 6.60909 26.9649
rfemur 6.23572 -4.80786 31.7243
rtibia 22.2703
rfoot -5.18682 -8.20505
rtoes -21.3477
lfemur -30.1561 3.59463 2.91211
ltibia 37.1207
lfoot -2.53605 13.6758
ltoes -8.28595
787
root 0.799022 17.9661 11.2905 7.15461 -1.77378 -15.3619
lowerback 12.4499 -1.30506 -5.35079
upperback 0.964485 -2.74689 -4.39668
thorax -5.94488 -1.26127 -1.14716
lowerneck -21.8265 2.41847 9.48845
upperneck 13.3467 0.304395 0.457519
head 7.71544 0.700352 -1.32071
rclavicle 7.95139e-015 -1.59028e-014
rhumerus -15.76 -41.4714 3.51957
rradius 30.7554
rwrist 25.0986
rhand -8.15912 -0.976234
rfingers 7.12502
rthumb 17.7557 -30.1856
lclavicle 7.95139e-015 -1.59028e-014
lhumerus -24.799 34.6817 27.6317
lradius 37.4397
lwrist 10.7308
lhand -19.735 -2.97874
lfingers 7.12502
lthumb 6.59561 26.8986
rfemur 6.24896 -4.83652 31.725
rtibia 22.2234
rfoot -4.60306 -7.81948
rtoes -21.7505
lfemur -30.1422 3.4468 2.98507
ltibia 37.2625
lfoot -2.79605 13.9269
ltoes -8.21433
788
root 0.828235 17.979 11.3706 7.33649 -1.71639 -15.5118
lowerback 12.4183 -1.24422 -5.52881
upperback 0.913505 -2.69676 -4.47273
thorax -5.97833 -1.2319 -1.13736
lowerneck -21.9541 2.29593 9.25584
upperneck 13.3603 0.132013 0.791989
head 7.73397 0.641547 -1.19316
rclavicle -4.85035e-014 1.90833e-014
rhumerus -15.6707 -39.8419 3.31904
rradius 30.8367
rwrist 18.7121
rhand -11.1599 -1.97629
rfingers 7.12502
rthumb 14.8665 -31.4229
lclavicle -4.85035e-014 1.90833e-014
lhumerus -24.6837 34.6359 27.8062
lradius 37.4064
lwrist 10.6398
lhand -19.7615 -3.04607
lfingers 7.12502
lthumb 6.57004 26.832
rfemur 6.23479 -4.80409 31.7047
rtibia 22.2015
rfoot -4.00239 -7.43227
rtoes -22.1635
lfemur -30.1097 3.33232 3.03855
ltibia 37.3842
lfoot -3.05049 14.1747
ltoes -8.16229
789
root 0.856609 17.9915 11.4498 7.52046 -1.68849 -15.655
lowerback 12.3822 -1.24682 -5.75999
upperback 0.829271 -2.74268 -4.59201
thorax -6.04303 -1.24744 -1.1274
lowerneck -21.9221 2.27318 9.26117
upperneck 13.3801 0.0504667 1.07207
head 7.73418 0.632687 -1.11027
rclavicle -3.97569e-015 -4.45278e-014
rhumerus -15.3726 -38.0916 2.75823
rradius 31.0139
rwrist 11.7991
rhand -14.4522 -2.59631
rfingers 7.12502
rthumb 11.6931 -32.25
lclavicle -3.97569e-015 -4.45278e-014
lhumerus -24.7951 34.5564 27.6466
lradius 37.4004
lwrist 10.6595
lhand -19.7755 -3.08395
lfingers 7.12502
lthumb 6.55656 26.7946
rfemur 6.20075 -4.72498 31.6811
rtibia 22.2041
rfoot -3.38733 -7.04595
rtoes -22.5729
lfemur -30.0611 3.24739 3.08777
ltibia 37.4946
lfoot -3.29686 14.4095
ltoes -8.14635
790
root 0.884051 18.0037 11.5279 7.71028 -1.68157 -15.7976
lowerback 12.3425 -1.26096 -5.99685
upperback 0.745728 -2.80528 -4.72439
thorax -6.10511 -1.27101 -1.12564
lowerneck -21.8646 2.27257 9.31261
upperneck 13.3594 -0.00739033 1.33509
head 7.71793 0.634086 -1.0374
rclavicle -2.62396e-014 -4.13472e-014
rhumerus -15.1216 -36.5282 2.21971
rradius 31.2223
rwrist 5.14896
rhand -17.6725 -1.97677
rfingers 7.12502
rthumb 8.58641 -31.7822
lclavicle -2.62396e-014 -4.13472e-014
lhumerus -24.9334 34.5532 27.4048
lradius 37.3622
lwrist 10.6876
lhand -19.7698 -3.15386
lfingers 7.12502
lthumb 6.56207 26.7245
rfemur 6.13782 -4.60973 31.6631
rtibia 22.2393
rfoot -2.76377 -6.66483
rtoes -22.972
lfemur -30.0147 3.20039 3.13759
ltibia 37.6035
lfoot -3.53403 14.622
ltoes -8.1541
